<svg width="14" height="15" viewBox="0 0 14 15" fill="none" xmlns="http://www.w3.org/2000/svg">
<path d="M2.56652 3.24872C2.99885 3.59993 3.16102 3.57313 3.9728 3.51898L11.626 3.05943C11.7883 3.05943 11.6533 2.8975 11.5992 2.87059L10.3282 1.95173C10.0846 1.76267 9.76018 1.54613 9.1383 1.60029L1.7277 2.1408C1.45745 2.1676 1.40346 2.30272 1.5111 2.41105L2.56652 3.24872ZM3.02601 5.03228V13.0848C3.02601 13.5176 3.24228 13.6794 3.72903 13.6527L12.1399 13.166C12.6269 13.1392 12.6811 12.8416 12.6811 12.49V4.49155C12.6811 4.14056 12.5461 3.95127 12.248 3.97829L3.45856 4.49155C3.1342 4.5188 3.02601 4.68106 3.02601 5.03228ZM11.3292 5.46423C11.3831 5.70769 11.3292 5.95091 11.0853 5.97827L10.68 6.05901V12.0039C10.3282 12.193 10.0037 12.3011 9.73336 12.3011C9.30048 12.3011 9.19207 12.1659 8.86782 11.7608L6.21701 7.59933V11.6257L7.05582 11.8149C7.05582 11.8149 7.05582 12.3011 6.37908 12.3011L4.51342 12.4093C4.45922 12.3011 4.51342 12.0311 4.70266 11.977L5.18951 11.8421V6.51856L4.51353 6.46439C4.45933 6.22095 4.59435 5.86995 4.97325 5.8427L6.97468 5.70779L9.73336 9.9234V6.19413L9.03 6.1134C8.97601 5.81579 9.19207 5.59969 9.46254 5.57289L11.3292 5.46423ZM1.10549 1.41123L8.81372 0.843587C9.76029 0.762401 10.0038 0.816783 10.5988 1.24897L13.0593 2.97836C13.4653 3.27575 13.6007 3.35671 13.6007 3.6809V13.166C13.6007 13.7604 13.3841 14.112 12.627 14.1658L3.67549 14.7063C3.10716 14.7334 2.83667 14.6524 2.53903 14.2739L0.72704 11.9229C0.402352 11.4902 0.267334 11.1664 0.267334 10.7877V2.35667C0.267334 1.87055 0.48394 1.46506 1.10549 1.41123Z" fill="#37352F"/>
</svg>
